# xmcd
#
# Track frame offsets: 
#        150
#        13398
#        23646
#        40944
#        51492
#        64140
#        82413
#        96861
#        109734
#        128157
#        140355
#        149178
#        161751
#        176274
#        191022
#        202695
#        217743
#        234366
#        246264
#        261537
#        281010
#        294258
#        307806
#        320229
#        332652
#
# Disc length: 4657 seconds
#
# Revision: 0
# Processed by: cddbd v1.5.2PL0 Copyright (c) Steve Scherf et al.
# Submitted via: ExactAudioCopyFreeDBPlugin 1.0
#
DISCID=7e122f19
DTITLE=Various Artist - Country Gospel Gold [K-Tel]
DYEAR=2011
DGENRE=Country
TTITLE0=Jim Reeves - It Is No Secret (What God Can Do)
TTITLE1=Johnny Cash - I Was There When It Happened
TTITLE2=Brenda Lee - How Great Thou Art
TTITLE3=Ferlin Husky - Wings of a Dove
TTITLE4=Don Gibson - Where No One Stands Alone
TTITLE5=Brenda Lee - Just a Closer Walk With Thee
TTITLE6=Slim Whitman - Beyond the Sunset
TTITLE7=Marty Robbins - Blessed Jesus, Should I Fall Don't Let Me lay
TTITLE8=Brenda Lee - Precious Memories
TTITLE9=Don Gibson - God Walks These Hills With Me
TTITLE10=Johnny Cash - A Wonderful Time Up There
TTITLE11=Marty Robbins - Kneel and Let the Lord Take Your Load
TTITLE12=George Jones - Family Bible
TTITLE13=Brenda Lee - In the Garden
TTITLE14=Johnny Cash - Oh Come Angel Band
TTITLE15=Elvis Presley - Peace in the Valley
TTITLE16=Brenda Lee - The Old Rugged Cross
TTITLE17=Marty Robbins - Have Thine Own Way, Lord
TTITLE18=Slim Whitman - Mansion Over the Hilltop
TTITLE19=Brenda Lee - What a Friend We Have in Jesus
TTITLE20=Roy Acuff - Great Speckled Bird
TTITLE21=Tex Ritter - Deck of Cards
TTITLE22=Brenda Lee - When the Roll Is Called Up Yonder
TTITLE23=Hank Williams - I Saw the Light
TTITLE24=Tammy Wynette - Amazing Grace and I'll Fly Away and Will the Circ
TTITLE24=le Be Unbroken
EXTD=
EXTT0=
EXTT1=
EXTT2=
EXTT3=
EXTT4=
EXTT5=
EXTT6=
EXTT7=
EXTT8=
EXTT9=
EXTT10=
EXTT11=
EXTT12=
EXTT13=
EXTT14=
EXTT15=
EXTT16=
EXTT17=
EXTT18=
EXTT19=
EXTT20=
EXTT21=
EXTT22=
EXTT23=
EXTT24=
PLAYORDER=
